<svg xmlns="http://www.w3.org/2000/svg" width="125" height="25" viewBox="0 0 125 25" fill="none">
    <g clip-path="url(#clip0_13_883)">
        <path
            d="M11.506 12.3031C11.6512 12.2993 11.7914 12.2492 11.906 12.1601C11.9668 12.1805 12.0309 12.1899 12.095 12.188C12.2099 12.182 12.3207 12.1441 12.4152 12.0786C12.5097 12.0131 12.5841 11.9225 12.63 11.817C12.7329 11.8316 12.8378 11.8138 12.93 11.7661C13.0327 11.7036 13.1129 11.6103 13.1592 11.4995C13.2056 11.3886 13.2157 11.266 13.188 11.149C13.2 11.142 13.209 11.1331 13.221 11.1241C13.3118 11.0298 13.3621 10.9037 13.3609 10.7728C13.3598 10.6419 13.3074 10.5167 13.215 10.424C13.2099 10.4169 13.2039 10.4105 13.197 10.4051C13.2296 10.3828 13.2563 10.3529 13.2749 10.3181C13.2936 10.2833 13.3035 10.2445 13.304 10.205C13.304 10.061 13.13 9.94604 12.971 9.94604C12.812 9.94604 12.639 10.061 12.639 10.205C12.5846 10.2286 12.5324 10.2571 12.483 10.2901C12.4468 10.3251 12.418 10.3671 12.3982 10.4135C12.3785 10.4598 12.3682 10.5097 12.368 10.5601C12.3423 10.5696 12.3174 10.5817 12.294 10.5961C12.2569 10.616 12.2231 10.6416 12.194 10.6721C12.1488 10.6594 12.102 10.6537 12.055 10.6551C11.9863 10.6562 11.9184 10.6704 11.855 10.6971C11.7411 10.6167 11.6043 10.5754 11.465 10.5791C11.2577 10.6122 11.0693 10.719 10.9347 10.8801C10.8 11.0411 10.7281 11.2455 10.7323 11.4554C10.7364 11.6652 10.8163 11.8665 10.9572 12.0222C11.0981 12.1778 11.2906 12.2772 11.499 12.3021L11.506 12.3031Z"
            fill="white" />
        <path
            d="M6.64498 11.1251C6.65541 11.1341 6.66645 11.1425 6.678 11.15C6.65043 11.2669 6.66042 11.3894 6.70656 11.5002C6.75271 11.611 6.83268 11.7044 6.93502 11.7671C7.02729 11.8148 7.13214 11.8326 7.23501 11.818C7.28092 11.9235 7.35529 12.0141 7.44979 12.0796C7.54429 12.1451 7.65514 12.183 7.76998 12.189C7.83413 12.1909 7.89814 12.1814 7.95901 12.1611C8.07344 12.2506 8.21377 12.3007 8.35903 12.304C8.56742 12.2789 8.75965 12.1793 8.90035 12.0235C9.04105 11.8677 9.1207 11.6663 9.12459 11.4565C9.12849 11.2466 9.05641 11.0424 8.92159 10.8815C8.78677 10.7206 8.59833 10.6139 8.39101 10.581C8.25192 10.5779 8.11539 10.6189 8.001 10.6981C7.93746 10.6721 7.86962 10.6581 7.80099 10.657C7.7538 10.6557 7.70671 10.6611 7.66103 10.6731C7.63131 10.6436 7.59762 10.6183 7.561 10.598C7.53369 10.583 7.50487 10.5709 7.475 10.562C7.4778 10.5126 7.47035 10.4631 7.45315 10.4166C7.43594 10.3702 7.40937 10.3277 7.37502 10.292C7.32136 10.2581 7.26436 10.2296 7.20498 10.2071C7.19474 10.1314 7.15609 10.0625 7.09682 10.0144C7.03755 9.96625 6.96215 9.94253 6.88601 9.94805C6.81247 9.9451 6.74054 9.97021 6.68484 10.0183C6.62913 10.0664 6.59383 10.1339 6.58602 10.2071C6.5852 10.246 6.59387 10.2846 6.61129 10.3194C6.62871 10.3543 6.65435 10.3843 6.686 10.407L6.665 10.426C6.57097 10.5168 6.51621 10.6408 6.51247 10.7715C6.50873 10.9021 6.55629 11.029 6.64498 11.1251Z"
            fill="white" />
        <path
            d="M9.94403 15.555L10.2971 15.022L10.23 14.769L10.507 14.808C10.525 14.923 10.6 15.055 10.707 15.071C10.8067 15.0822 10.9073 15.0822 11.007 15.071L11.1071 14.949C11.0168 14.8652 10.9198 14.7889 10.817 14.721C10.8012 14.2112 10.7133 13.7062 10.556 13.221C10.464 12.956 10.341 12.948 10.106 12.979C9.80049 13.0829 9.50819 13.2222 9.23505 13.394L9.19104 13.763L9.40906 13.788C9.40906 13.788 9.28403 14.202 9.24103 14.351C9.19803 14.5 9.235 14.493 9.315 14.551C9.43807 14.6064 9.56643 14.6493 9.69806 14.679L9.61206 15.063L9.94403 15.555Z"
            fill="white" />
        <path
            d="M9.87897 10.915C9.70897 10.915 9.57098 10.615 9.57098 10.237C9.57098 9.85903 9.70897 9.56204 9.87897 9.56204C10.049 9.56204 10.187 9.86203 10.187 10.237C10.187 10.612 10.048 10.915 9.87897 10.915ZM9.11597 10.873C9.24297 11.604 9.71601 11.673 9.89801 11.665C9.89633 11.8201 9.8806 11.9747 9.85101 12.127L10.081 12.285C10.1037 12.0379 10.1037 11.7892 10.081 11.542C10.637 11.461 10.75 10.635 10.75 10.635C10.5747 10.6983 10.4193 10.807 10.2999 10.9501C10.1804 11.0931 10.1011 11.2653 10.07 11.449C10.0546 11.2671 10.0051 11.0896 9.92401 10.926C10.0583 10.9121 10.1856 10.8597 10.2907 10.775C10.3958 10.6904 10.4743 10.5772 10.5165 10.449C10.5588 10.3208 10.5632 10.1831 10.529 10.0526C10.4948 9.92198 10.4236 9.80409 10.324 9.71304L10.44 9.49603L10.195 9.54602L10.095 9.35803L9.91498 9.50302L9.80701 9.35803L9.69098 9.52502L9.474 9.40302L9.53497 9.60303C9.40018 9.66761 9.28961 9.77365 9.21942 9.90561C9.14923 10.0376 9.1231 10.1885 9.1449 10.3364C9.16669 10.4843 9.23524 10.6213 9.34052 10.7274C9.44579 10.8335 9.58228 10.9031 9.72998 10.926C9.83312 11.1073 9.88949 11.3115 9.89398 11.52C9.71065 11.2266 9.43791 10.9998 9.11597 10.873Z"
            fill="white" />
        <path
            d="M10.493 16.884C10.4621 16.8127 10.4461 16.7357 10.4461 16.658C10.4461 16.5802 10.4621 16.5033 10.493 16.432H9.64502C9.61373 16.5032 9.5976 16.5802 9.5976 16.658C9.5976 16.7358 9.61373 16.8128 9.64502 16.884H10.493Z"
            fill="white" />
        <path
            d="M9.645 17.9401C9.58179 18.1371 9.58179 18.349 9.645 18.5461H10.491C10.4283 18.3489 10.4283 18.1372 10.491 17.9401H9.645Z"
            fill="white" />
        <path
            d="M10.695 17.334L10.884 17.034H9.58997L9.448 16.882H8.90802L8.97498 17.034H9.10498L9.24298 17.334H10.695Z"
            fill="white" />
        <path
            d="M10.684 18.701H9.58398L9.50598 18.549H9.22198L9.30896 18.721L9.54095 18.849H10.657L10.882 18.719L10.913 18.549H10.731L10.684 18.701Z"
            fill="white" />
        <path
            d="M9.91699 19.699C8.51319 18.7676 7.37869 17.4837 6.62701 15.976H13.2C12.4513 17.4836 11.319 18.7676 9.91699 19.699ZM5.67603 12.753H14.157C14.0541 13.7871 13.7762 14.7961 13.335 15.737H6.5C6.057 14.7966 5.77797 13.7874 5.67499 12.753H5.67603ZM5.55798 8.94601C5.62498 8.93401 5.69099 8.93102 5.76599 8.91302C6.02763 9.15133 6.33412 9.33516 6.66754 9.45379C7.00096 9.57243 7.35465 9.62348 7.70801 9.604C8.35312 9.14631 9.12455 8.90048 9.91553 8.90048C10.7065 8.90048 11.4779 9.14631 12.123 9.604C12.4758 9.62404 12.829 9.57383 13.1622 9.45624C13.4954 9.33864 13.802 9.15602 14.064 8.919C14.142 8.937 14.207 8.93203 14.273 8.94403C14.3585 10.1292 14.3193 11.32 14.156 12.497H5.67499C5.5122 11.3207 5.47299 10.1305 5.55798 8.94601ZM8.01398 8.56201C7.93432 8.82196 7.81531 9.06816 7.66101 9.29202C7.09694 9.29136 6.54371 9.13679 6.06097 8.845L6.24701 8.78302C6.75351 8.59382 7.29457 8.51504 7.83398 8.552C7.89998 8.553 7.95598 8.55901 8.01398 8.56201ZM4.854 7.94601C5.286 7.44001 5.32103 7.26702 5.25403 7.04602C5.14296 6.78702 4.98647 6.54995 4.79199 6.34601C4.66999 6.22301 4.49699 6.13702 3.91199 6.31802C3.76178 6.3791 3.59537 6.38752 3.43976 6.34195C3.28415 6.29637 3.14851 6.19947 3.05499 6.06701C3.0756 6.06924 3.0964 6.06924 3.117 6.06701C3.16476 6.05575 3.21492 6.0614 3.25897 6.08301C3.2969 6.09252 3.33661 6.09288 3.37469 6.08401C3.41278 6.07514 3.4482 6.05731 3.47803 6.03201C3.54303 5.98201 3.52497 6.018 3.56097 6.018C3.59697 6.018 3.63003 5.98502 3.74103 5.96902C3.83554 5.94413 3.92308 5.89794 3.99701 5.83401C4.06001 5.85101 4.156 5.743 4.211 5.682C4.266 5.621 4.25001 5.71102 4.28601 5.68802C4.32201 5.66502 4.33299 5.70702 4.38599 5.71502C4.4653 5.70416 4.54276 5.68228 4.61603 5.65002C4.71603 5.67902 4.89398 5.48703 4.89398 5.48703C4.97898 5.49503 5.06299 5.38702 5.06299 5.38702C5.19199 5.43402 5.27297 5.351 5.34497 5.276C5.38599 5.21955 5.446 5.17978 5.51398 5.164C5.58298 5.146 5.58901 5.11002 5.66101 5.03702C5.73301 4.96402 5.72498 5.02003 5.76898 5.03003C5.81298 5.04003 5.85301 4.98802 5.87701 5.03702C5.90101 5.08602 5.89899 5.117 5.98499 5.052C6.07099 4.987 6.02401 5.28 6.02802 5.367C6.03202 5.454 6.08298 5.517 6.20898 5.539C6.33498 5.561 6.44098 5.41702 6.44098 5.41702C6.48609 5.42746 6.53327 5.42438 6.57666 5.4082C6.62005 5.39202 6.65774 5.36345 6.685 5.32602C6.714 5.26402 6.73303 5.26801 6.75403 5.30801C6.77503 5.34801 6.881 5.33 6.927 5.251C6.973 5.172 7.00099 5.23902 7.04199 5.28302C7.04824 5.29272 7.05682 5.30069 7.06696 5.30621C7.07709 5.31174 7.08843 5.31463 7.09998 5.31463C7.11152 5.31463 7.12292 5.31174 7.13306 5.30621C7.14319 5.30069 7.15177 5.29272 7.15802 5.28302C7.18902 5.24302 7.20902 5.301 7.27002 5.272C7.33102 5.243 7.36401 5.27202 7.43201 5.30502C7.50001 5.33802 7.45401 5.39501 7.45801 5.44201C7.46201 5.48901 7.527 5.52102 7.565 5.59402C7.603 5.66702 7.61003 5.64902 7.68103 5.68402C7.77084 5.73745 7.85552 5.79903 7.93402 5.86801C7.94933 5.8823 7.96769 5.89288 7.98773 5.89895C8.00777 5.90503 8.02896 5.90645 8.04962 5.90307C8.07029 5.89969 8.08987 5.89163 8.10693 5.87948C8.12399 5.86734 8.13805 5.85143 8.14801 5.83301C8.16301 5.89601 8.18403 6.00201 8.21503 6.00201C8.24603 6.00201 8.27198 5.92002 8.29498 5.87002C8.32698 5.91402 8.36302 5.90301 8.39502 5.91601C8.31678 6.07125 8.27931 6.24386 8.28613 6.41757C8.29296 6.59128 8.34385 6.7604 8.43402 6.90902C8.44902 6.90902 8.46099 6.89101 8.47198 6.86001C8.49301 6.97915 8.49806 7.10054 8.487 7.22101C8.38159 7.36961 8.30122 7.53446 8.24902 7.70901C7.57224 7.45403 6.82397 7.46511 6.15503 7.74002C5.73573 7.88011 5.29607 7.94971 4.854 7.94601ZM8.48999 5.98202C8.50543 6.08928 8.5364 6.19371 8.58197 6.29202C8.56797 6.31702 8.55503 6.341 8.54303 6.367C8.52568 6.22732 8.47862 6.093 8.40503 5.97302C8.43257 5.98129 8.46156 5.98333 8.48999 5.979V5.98202ZM8.63202 3.669L8.63702 3.656C8.78802 3.89114 9.02237 4.06046 9.29303 4.13C9.26291 4.14499 9.23548 4.16495 9.21198 4.18902C9.07418 4.18523 8.93935 4.14817 8.81897 4.08102C8.76497 4.02002 8.73998 3.96502 8.69598 3.97302C8.65198 3.98102 8.69601 3.908 8.65601 3.88C8.61601 3.852 8.54002 3.853 8.63202 3.669ZM9.32599 3.72302C9.44832 3.78656 9.55 3.8837 9.61902 4.00302C9.63402 4.04302 9.64698 4.08202 9.65698 4.11902C9.56887 4.09438 9.47667 4.08791 9.38599 4.1C9.29301 3.94319 9.16716 3.80844 9.01703 3.70501C9.11903 3.67531 9.22812 3.68167 9.32599 3.72302ZM10.353 7.66702H10.367C10.4628 7.70229 10.5655 7.71494 10.667 7.70401C10.7808 7.79651 10.8896 7.89499 10.993 7.99902C10.7885 8.1069 10.5961 8.23629 10.419 8.38501C10.3643 8.2001 10.3344 8.00877 10.33 7.81601C10.339 7.76501 10.347 7.71302 10.353 7.66702ZM13.77 8.845C13.2551 9.15542 12.662 9.31161 12.061 9.29501C11.547 9.30189 11.0379 9.19501 10.57 8.98202C11.0025 8.722 11.4929 8.57387 11.997 8.55102C12.5368 8.5141 13.0782 8.59285 13.585 8.78201C13.639 8.80201 13.7 8.822 13.77 8.845ZM10.799 6.40301C10.862 6.12501 10.911 5.89102 10.969 5.93002C10.997 5.95135 11.0313 5.96289 11.0665 5.96289C11.1018 5.96289 11.136 5.95135 11.164 5.93002C11.201 5.88102 11.212 5.87602 11.24 5.93002C11.268 5.98402 11.44 6.06303 11.558 5.86603C11.676 5.66903 11.641 5.76602 11.674 5.84402C11.707 5.92202 11.796 5.95101 11.897 5.87201C11.9755 5.80303 12.0602 5.74144 12.15 5.68802C12.222 5.65302 12.225 5.67102 12.265 5.59802C12.305 5.52502 12.365 5.49201 12.373 5.44601C12.381 5.40001 12.33 5.34602 12.399 5.30902C12.468 5.27202 12.499 5.247 12.562 5.276C12.625 5.305 12.64 5.24702 12.673 5.28702C12.6792 5.29672 12.6879 5.30468 12.698 5.31021C12.7081 5.31573 12.7195 5.31863 12.731 5.31863C12.7426 5.31863 12.7539 5.31573 12.764 5.31021C12.7742 5.30468 12.7828 5.29672 12.789 5.28702C12.828 5.24302 12.858 5.176 12.905 5.255C12.952 5.334 13.056 5.35501 13.077 5.31201C13.098 5.26901 13.117 5.26901 13.147 5.33001C13.1742 5.36745 13.2119 5.39605 13.2553 5.41223C13.2987 5.42841 13.3459 5.43146 13.391 5.42102C13.391 5.42102 13.491 5.56503 13.622 5.54303C13.753 5.52103 13.799 5.457 13.802 5.371C13.805 5.285 13.759 4.99203 13.845 5.05603C13.931 5.12003 13.929 5.09201 13.953 5.04101C13.977 4.99001 14.018 5.04102 14.061 5.03402C14.104 5.02702 14.097 4.96901 14.169 5.04101C14.241 5.11301 14.248 5.14903 14.317 5.16803C14.3846 5.18462 14.4444 5.22421 14.486 5.28003C14.559 5.35503 14.638 5.43802 14.767 5.39102C14.767 5.39102 14.85 5.49903 14.938 5.49103C14.938 5.49103 15.114 5.68402 15.215 5.65402C15.2886 5.68648 15.3663 5.70836 15.446 5.71902C15.504 5.71202 15.515 5.67301 15.552 5.69201C15.589 5.71101 15.573 5.624 15.626 5.686C15.679 5.748 15.778 5.85601 15.839 5.83801C15.9131 5.90168 16.0006 5.94783 16.095 5.97302C16.207 5.98902 16.239 6.022 16.275 6.022C16.311 6.022 16.293 5.98601 16.359 6.03601C16.389 6.06139 16.4246 6.07926 16.4628 6.08813C16.5011 6.097 16.5409 6.09661 16.579 6.087C16.6227 6.06539 16.6725 6.05974 16.72 6.07101C16.7423 6.07319 16.7647 6.07319 16.787 6.07101C16.6933 6.20359 16.5576 6.30063 16.4019 6.34637C16.2461 6.39212 16.0795 6.38389 15.929 6.32303C15.346 6.14203 15.171 6.22801 15.049 6.35101C14.8548 6.55534 14.698 6.79231 14.586 7.05102C14.516 7.27402 14.552 7.45102 14.986 7.95102C14.5445 7.95868 14.1048 7.89104 13.686 7.751C13.0073 7.47249 12.2473 7.4675 11.565 7.73703C11.445 7.79103 11.334 7.837 11.23 7.893C11.153 7.815 10.961 7.61701 10.89 7.52801C10.9148 7.4078 10.9291 7.28569 10.933 7.16302C10.9452 7.05871 10.9227 6.95326 10.869 6.863C10.8196 6.79838 10.7874 6.7223 10.7753 6.64187C10.7633 6.56144 10.7708 6.47928 10.799 6.40301ZM19.838 8.544L18.259 9.14401L18.107 9.57L17.753 9.80002C17.7346 9.18505 17.6701 8.57232 17.56 7.96701L18.13 7.96103L19.181 6.67901L17.652 7.33502L17.514 7.781L16.014 8.919C16.0912 9.57301 16.1119 10.2325 16.076 10.89L16.408 10.667C16.551 16.915 13.695 19.267 13.695 19.267C13.3551 19.1403 13.0457 18.9434 12.787 18.689C14.4286 16.6326 15.3055 14.0701 15.268 11.439L14.993 11.62C15.0515 10.9701 15.0646 10.3168 15.032 9.66501L14.552 10.03C14.541 9.60103 14.516 9.24402 14.487 8.99502C14.7805 9.02833 15.0764 8.95753 15.323 8.79501C15.5664 8.5202 15.7199 8.17756 15.763 7.81302C15.806 7.57502 15.756 7.49501 15.612 7.40201C15.4103 7.25279 15.2198 7.08903 15.042 6.91202C15.042 6.91202 15.29 6.805 15.871 7.078C16.498 7.378 16.971 7.229 17.509 6.436L16.867 6.53003L16.923 6.087C16.9348 6.09169 16.9461 6.09737 16.957 6.104C17.1261 6.19378 17.3064 6.26103 17.493 6.30401C17.638 6.33301 17.633 6.31203 17.724 6.36603C17.815 6.42003 17.892 6.442 17.94 6.419C17.94 6.419 18.299 6.619 18.44 6.419C18.5071 6.45913 18.5766 6.49519 18.648 6.52701C18.756 6.57451 18.8707 6.60487 18.988 6.617C19.0631 6.62159 19.1366 6.64133 19.204 6.67502C19.431 6.78902 19.569 6.73002 19.604 6.67502C19.639 6.62002 19.463 6.44201 19.329 6.33001C19.2577 6.2664 19.1724 6.22049 19.08 6.19601C19.124 6.16801 19.112 6.12302 19.026 6.02002C18.915 5.92086 18.7904 5.83802 18.656 5.77401C18.656 5.69001 18.334 5.48801 18.14 5.34201C17.946 5.19601 18.024 5.20101 17.819 4.98901C17.3032 4.52801 16.7638 4.0941 16.203 3.68902C15.3326 3.00296 14.3711 2.44125 13.346 2.02002C12.9997 1.85567 12.6207 1.77166 12.2373 1.77426C11.8539 1.77686 11.4761 1.86597 11.132 2.035C10.9758 2.12093 10.86 2.26525 10.8099 2.43637C10.7599 2.60748 10.7797 2.79147 10.865 2.94803C10.9616 3.19524 11.0738 3.43604 11.201 3.669C11.294 3.853 11.218 3.85003 11.175 3.87903C11.132 3.90803 11.175 3.97901 11.136 3.97201C11.097 3.96501 11.066 4.01901 11.011 4.08001C10.9489 4.12393 10.8766 4.15115 10.801 4.15902C10.7956 4.13272 10.7958 4.10557 10.8017 4.07937C10.8076 4.05317 10.8189 4.02851 10.835 4.00702C10.772 3.97722 10.7044 3.95829 10.635 3.95102C10.65 3.92102 10.707 3.90002 10.707 3.90002C10.6301 3.89016 10.5522 3.89251 10.476 3.90701C10.501 3.86801 10.523 3.86102 10.523 3.86102C10.4635 3.8493 10.4019 3.85464 10.3453 3.8764C10.2887 3.89816 10.2393 3.93545 10.203 3.98401C10.143 3.88422 10.0678 3.79447 9.97998 3.71801C9.89398 3.63701 9.85 3.518 9.758 3.432C9.77926 3.39818 9.79225 3.35983 9.7959 3.32004C9.79955 3.28024 9.79375 3.24013 9.77899 3.203C9.71568 3.09398 9.61352 3.01292 9.49298 2.97601C9.51494 2.96392 9.53287 2.94561 9.54443 2.92337C9.556 2.90112 9.5607 2.87594 9.55798 2.85101C9.54698 2.76501 9.46603 2.73301 9.37903 2.76001C9.2895 2.77019 9.20316 2.79952 9.12598 2.84601C9.08374 2.85014 9.04126 2.85014 8.99902 2.84601C9.06051 2.69776 9.06374 2.53177 9.00812 2.38122C8.9525 2.23068 8.84208 2.10669 8.69897 2.03402C8.3549 1.86493 7.97706 1.77573 7.59369 1.77313C7.21031 1.77053 6.83132 1.85459 6.48499 2.01901C5.4603 2.44043 4.49916 3.00213 3.62903 3.68802C3.06852 4.09306 2.52941 4.52697 2.01398 4.988C1.80698 5.2 1.88697 5.188 1.69397 5.341C1.50097 5.494 1.173 5.69001 1.177 5.77301C1.04239 5.83717 0.917525 5.91999 0.80603 6.01901C0.72003 6.11901 0.705977 6.16701 0.750977 6.195C0.659037 6.21983 0.574147 6.26571 0.502991 6.32901C0.368991 6.44101 0.196027 6.62001 0.228027 6.67401C0.260027 6.72801 0.396991 6.78801 0.627991 6.67401C0.695358 6.64035 0.768827 6.62064 0.843994 6.61603C0.961339 6.604 1.0761 6.57361 1.18402 6.526C1.25585 6.49435 1.32564 6.45831 1.39301 6.41803C1.53701 6.61803 1.89301 6.41803 1.89301 6.41803C1.94001 6.44103 2.02001 6.41802 2.10901 6.36502C2.19801 6.31202 2.19599 6.33201 2.33899 6.30301C2.52649 6.26081 2.70748 6.19356 2.87701 6.10302C2.88849 6.09514 2.90091 6.08874 2.914 6.08401L2.97198 6.52801L2.32898 6.43402C2.86198 7.22702 3.339 7.37202 3.966 7.07602C4.548 6.80202 4.79602 6.91 4.79602 6.91C4.61801 7.08678 4.42751 7.25056 4.22601 7.40002C4.08201 7.49402 4.03101 7.574 4.07501 7.811C4.1184 8.17566 4.27226 8.51834 4.51599 8.79303C4.76263 8.95555 5.0585 9.02631 5.35199 8.99301C5.32299 9.24201 5.29801 9.59901 5.28601 10.028L4.80103 9.66C4.76814 10.3128 4.78081 10.967 4.83899 11.618L4.565 11.437C4.52616 14.0684 5.4036 16.6315 7.047 18.687C6.78756 18.9409 6.47795 19.1378 6.138 19.265C6.138 19.265 3.28103 16.914 3.42603 10.665L3.75702 10.888C3.72081 10.2298 3.74119 9.56971 3.81799 8.91501L2.31799 7.78003L2.17999 7.33401L0.656006 6.67901L1.70801 7.962L2.27698 7.96802C2.16588 8.57323 2.10069 9.18598 2.08197 9.80102L1.729 9.57101L1.578 9.14502L0 8.54501L1.117 9.79303L1.672 9.75802C1.672 9.75802 1.10402 15.289 2.98102 18.265C4.54602 20.741 6.82103 20.765 8.89203 19.37C8.62128 20.1576 8.27845 20.9184 7.86798 21.643C8.14841 21.6465 8.42822 21.6709 8.70502 21.716C8.70502 21.716 8.61997 22.076 8.57397 22.184C8.52798 22.292 8.537 22.478 8.75 22.484C8.963 22.49 9.24103 22.517 9.24103 22.517C9.24103 22.517 9.20302 22.777 9.19702 22.917C9.19102 23.102 9.17302 23.181 9.91602 23.212C10.694 23.181 10.643 23.103 10.635 22.917C10.63 22.778 10.594 22.517 10.594 22.517C10.594 22.517 10.872 22.49 11.086 22.484C11.3 22.478 11.306 22.292 11.261 22.184C11.216 22.076 11.128 21.716 11.128 21.716C11.4048 21.671 11.6846 21.6466 11.965 21.643C11.5552 20.9178 11.2118 20.1571 10.939 19.37C13.012 20.761 15.289 20.744 16.854 18.265C18.732 15.289 18.162 9.75802 18.162 9.75802L18.718 9.79303L19.838 8.544Z"
            fill="white" />
        <path
            d="M45.17 7.92002C43.916 6.7505 42.2676 6.09607 40.553 6.08702C36.547 6.08702 34.226 9.08704 34.253 12.707C34.253 15.834 36.11 18.863 40.553 18.863C42.086 18.9003 43.5769 18.3599 44.73 17.349V13.88H39.966V11.437H47.266V18.448C46.4357 19.41 45.4027 20.176 44.2411 20.6913C43.0796 21.2065 41.8183 21.4581 40.548 21.428C34.269 21.428 31.558 17.25 31.558 12.707C31.558 7.77304 34.709 3.57102 40.548 3.57102C42.9153 3.56746 45.1884 4.49781 46.874 6.16004L45.17 7.92002Z"
            fill="white" />
        <path
            d="M58.21 18.903C62.479 18.903 64.269 15.886 64.269 12.603C64.269 9.43903 62.454 6.15203 58.259 6.07803C54.285 6.07803 52.151 8.84903 52.151 12.603C52.197 15.641 53.967 18.903 58.21 18.903ZM66.992 12.55C66.992 17.186 64.171 21.43 58.21 21.43C52.249 21.43 49.429 17.088 49.429 12.575C49.429 7.35001 53.084 3.57501 58.259 3.57501C64.121 3.59701 66.991 7.91402 66.991 12.55H66.992Z"
            fill="white" />
        <path d="M77.744 21.43H74.781L67.412 3.63H70.603L76.25 18.039L81.923 3.63H85.088L77.744 21.43Z" fill="white" />
        <path
            d="M86.9411 19.633C86.9467 19.8716 86.9045 20.1089 86.8172 20.3309C86.7298 20.5529 86.5989 20.7553 86.4321 20.926C86.2654 21.0967 86.0662 21.2324 85.8463 21.325C85.6264 21.4176 85.3902 21.4653 85.1516 21.4653C84.9129 21.4653 84.6767 21.4176 84.4568 21.325C84.2369 21.2324 84.0377 21.0967 83.871 20.926C83.7043 20.7553 83.5733 20.5529 83.4859 20.3309C83.3985 20.1089 83.3564 19.8716 83.3621 19.633C83.3731 19.1657 83.5665 18.7213 83.9009 18.3947C84.2353 18.0681 84.6842 17.8853 85.1516 17.8853C85.619 17.8853 86.0678 18.0681 86.4022 18.3947C86.7366 18.7213 86.93 19.1657 86.9411 19.633Z"
            fill="white" />
        <path
            d="M104.276 18.872C103.421 19.7053 102.408 20.3604 101.297 20.7995C100.187 21.2386 99.0002 21.4529 97.8061 21.43C91.5591 21.43 88.7541 17.13 88.7311 12.6C88.7081 8.07001 91.6571 3.57304 97.8061 3.57304C98.9768 3.56666 100.137 3.79393 101.219 4.24159C102.301 4.68924 103.282 5.34826 104.106 6.18003L102.261 7.95103C101.067 6.79989 99.4679 6.16391 97.8091 6.18003C96.9592 6.1347 96.1092 6.2696 95.3151 6.57594C94.521 6.88227 93.8007 7.35311 93.2014 7.9575C92.6021 8.56189 92.1374 9.28617 91.8378 10.0828C91.5382 10.8795 91.4105 11.7305 91.4631 12.58C91.4881 15.729 93.3571 18.852 97.8091 18.852C99.5174 18.8378 101.155 18.1688 102.385 16.983L104.276 18.872Z"
            fill="white" />
        <path
            d="M115.343 18.915C119.599 18.915 121.384 15.907 121.384 12.63C121.384 9.476 119.574 6.199 115.393 6.13C111.431 6.13 109.303 8.893 109.303 12.63C109.353 15.659 111.113 18.915 115.343 18.915ZM124.098 12.581C124.098 17.202 121.286 21.433 115.343 21.433C109.4 21.433 106.589 17.105 106.589 12.604C106.589 7.396 110.232 3.62903 115.389 3.62903C121.237 3.65203 124.098 7.955 124.098 12.578V12.581Z"
            fill="white" />
        <path d="M26.341 0H24.419V10.714H26.341V0Z" fill="#FBD015" />
        <path d="M26.341 10.714H24.419V17.857H26.341V10.714Z" fill="#C8C9CB" />
        <path d="M26.341 17.8571H24.419V25.0001H26.341V17.8571Z" fill="#D11F3E" />
    </g>
    <defs>
        <clipPath id="clip0_13_883">
            <rect width="124.098" height="25" fill="white" />
        </clipPath>
    </defs>
</svg>