<svg xmlns="http://www.w3.org/2000/svg" xmlns:xlink="http://www.w3.org/1999/xlink" width="1080" zoomAndPan="magnify"
    viewBox="0 0 810 809.999993" height="1080" preserveAspectRatio="xMidYMid meet" version="1.0">
    <path fill="#ffffff"
        d="M 344.75 654.855469 C 344.75 536.574219 345.136719 541.296875 334.042969 524.40625 C 327.328125 514.175781 318.25 506.554688 305.878906 500.761719 L 296.496094 496.371094 L 168.992188 495.9375 L 41.488281 495.507812 L 40.453125 471.558594 C 39.882812 458.390625 39.417969 430.285156 39.417969 409.105469 L 39.417969 370.597656 L 167.308594 370.597656 C 289.703125 370.597656 295.726562 370.734375 307.480469 373.738281 C 314.234375 375.464844 325.203125 379.347656 331.859375 382.367188 L 343.957031 387.851562 L 344.761719 27.296875 L 471.3125 27.296875 L 471.3125 206.859375 C 471.3125 305.617188 471.542969 386.417969 471.824219 386.417969 C 472.105469 386.417969 478.1875 383.882812 485.335938 380.785156 C 509.148438 370.464844 506.105469 370.65625 648.101562 370.625 L 776.644531 370.597656 L 776.644531 495.578125 L 653.578125 495.578125 C 519.554688 495.578125 520.957031 495.492188 504.21875 504.601562 C 495.179688 509.523438 484.023438 520.96875 479.359375 530.109375 C 471.433594 545.652344 471.3125 547.574219 471.3125 658.070312 L 471.3125 761.359375 L 344.75 761.359375 Z M 511.183594 276.183594 C 511.632812 221.292969 511.785156 218.769531 514.902344 214.597656 C 518.722656 209.484375 664.304688 129.441406 675.097656 126.519531 C 681.070312 124.902344 682.648438 125.0625 687.753906 127.796875 C 699.171875 133.910156 699.230469 134.316406 698.753906 203.183594 C 698.351562 261.859375 698.199219 264.550781 695.121094 268.671875 C 693.074219 271.414062 672.121094 283.757812 637.375 302.691406 L 582.84375 332.414062 L 546.78125 332.917969 L 510.714844 333.421875 Z M 230.84375 331.460938 C 229.539062 330.953125 211.382812 321.167969 190.5 309.710938 C 169.617188 298.257812 147.234375 286.109375 140.761719 282.714844 C 134.285156 279.324219 126.632812 274.191406 123.753906 271.3125 L 118.519531 266.078125 L 118.519531 140.089844 L 122.136719 134.714844 C 129.390625 123.929688 142.347656 123.5625 158.859375 133.671875 C 163.210938 136.335938 195.957031 154.5 231.632812 174.035156 C 267.308594 193.570312 298.277344 211.277344 300.453125 213.382812 L 304.40625 217.207031 L 305.34375 332.628906 L 269.28125 332.503906 C 249.445312 332.433594 232.148438 331.964844 230.84375 331.460938 Z M 230.84375 331.460938 "
        fill-opacity="1" fill-rule="nonzero" />
</svg>